<?xml version="1.0" encoding="utf-8"?>
<!-- Generator: Adobe Illustrator 21.1.0, SVG Export Plug-In . SVG Version: 6.00 Build 0)  -->
<svg version="1.1" id="Layer_1" xmlns="http://www.w3.org/2000/svg" xmlns:xlink="http://www.w3.org/1999/xlink" x="0px" y="0px"
	 viewBox="0 0 192 192" style="enable-background:new 0 0 192 192;" xml:space="preserve">
<style type="text/css">
	.st0{clip-path:url(#SVGID_2_);}
	.st1{fill:#BC9200;}
	.st2{fill:#FFC90D;}
	.st3{fill:#FFFFFF;}
</style>
<g id="surface1">
	<g>
		<defs>
			<rect id="SVGID_1_" x="14.9" y="17.2" width="163.1" height="165.8"/>
		</defs>
		<clipPath id="SVGID_2_">
			<use xlink:href="#SVGID_1_"  style="overflow:visible;"/>
		</clipPath>
		<g class="st0">
			<path class="st1" d="M14.9,98.7c0,29.1,15.5,56.1,40.8,70.6s56.3,14.6,81.6,0s40.8-41.5,40.8-70.6s-15.5-56.1-40.8-70.6
				s-56.3-14.6-81.6,0S14.9,69.6,14.9,98.7"/>
		</g>
	</g>
	<path class="st2" d="M14.9,90.6c0,29.1,15.5,56.1,40.8,70.6s56.3,14.6,81.6,0s40.8-41.5,40.8-70.6s-15.5-56.1-40.8-70.6
		S81,5.4,55.7,19.9S14.9,61.4,14.9,90.6"/>
	<path class="st3" d="M139.2,70.3l-12.1-20.9c-1.4-2.4-4.5-4.2-7.3-4.2H95.8c-1.7,0-3.1,0.7-3.8,1.9c-0.7,1.2-0.6,2.8,0.2,4.2
		l3.4,5.9h-9c-2.7,0-5.9,1.8-7.3,4.2L75.7,68l-2.8-4.9c-2.4-4.2-2.4-4.2-3.6-4.2c-1.2,0-1.2,0-3.6,4.2L53.7,84c-1.4,2.4-1.4,6,0,8.4
		l12.1,20.9c2.4,4.2,2.4,4.2,3.6,4.2c1.1,0,1.1,0,3.6-4.2l2.8-4.9l3.8,6.5c1.4,2.4,4.5,4.2,7.3,4.2h8.9l-3.4,5.8
		c-0.8,1.5-0.9,3-0.2,4.2c0.7,1.2,2.1,1.9,3.8,1.9h24.1c2.7,0,5.9-1.8,7.3-4.2l12-20.9c0.8-1.5,0.9-3,0.2-4.2
		c-0.7-1.2-2.1-1.9-3.8-1.9h-7l4.3-7.5c1.4-2.4,1.4-6,0-8.4l-4.3-7.5h7.4c0,0,0,0,0.1,0c4.3,0,4.3,0,4.9-0.9l0.1-0.1
		C141.6,74.5,141.6,74.5,139.2,70.3z M69.5,111.3c-0.1,0.1-0.1,0.2-0.2,0.3c-0.1-0.1-0.1-0.2-0.2-0.3L57.1,90.4
		c-0.7-1.2-0.7-3.3,0-4.4l12.1-20.9c0.1-0.1,0.1-0.2,0.2-0.3c0.1,0.1,0.1,0.2,0.2,0.3l4,6.9l-7,12.1c-1.4,2.4-1.4,6,0,8.4l7,12.1
		L69.5,111.3z M69.9,90.4c-0.7-1.2-0.7-3.3,0-4.4l5.8-10.1L81.6,86c0.7,1.2,0.7,3.3,0,4.4l-5.8,10.1L69.9,90.4z M82.9,112.9
		l-4.9-8.5l7-12c1.4-2.4,1.4-6,0-8.4L78,72l4.9-8.5c0.1-0.1,0.1-0.2,0.2-0.3l14.4,25l-14.4,25C83,113.1,82.9,113,82.9,112.9z
		 M135.6,103.8c0.1,0,0.2,0,0.3,0c0,0.1-0.1,0.2-0.1,0.3l-12,20.9c-0.7,1.2-2.5,2.2-3.9,2.2H95.8c-0.1,0-0.2,0-0.3,0
		c0-0.1,0.1-0.2,0.1-0.2l4.5-7.8h12.6c2.7,0,5.9-1.8,7.3-4.2l6.4-11.1L135.6,103.8z M102.4,115.1l5.3-9.2c0.7-1.2,2.5-2.2,3.9-2.2
		l10.3,0l-5.3,9.2c-0.7,1.2-2.5,2.2-3.9,2.2L102.4,115.1z M129.5,90.4l-5.4,9.4l-12.6,0c-2.7,0-5.9,1.8-7.3,4.2l-6.4,11.1H86.7
		c-0.1,0-0.2,0-0.3,0l14.4-24.9l28.7,0C129.6,90.3,129.6,90.3,129.5,90.4z M129.5,86c0.1,0.1,0.1,0.2,0.1,0.3l-28.8,0l-14.4-25
		c0.1,0,0.2,0,0.2,0H98l6.4,11.1c1.4,2.4,4.5,4.2,7.2,4.2l12.5,0L129.5,86z M102.5,61.2h10.2c1.3,0,3.2,1.1,3.9,2.2l5.3,9.1h-10.2
		c-1.3,0-3.2-1.1-3.9-2.2L102.5,61.2z M126.3,72.6l-6.4-11.1c-1.4-2.4-4.5-4.2-7.3-4.2h-12.5l-4.6-7.9c-0.1-0.1-0.1-0.2-0.1-0.3
		c0.1,0,0.2,0,0.3,0h24.1c1.3,0,3.2,1.1,3.9,2.2l12.1,20.9c0.1,0.1,0.1,0.2,0.2,0.3L126.3,72.6z"/>
</g>
</svg>
