<?xml version="1.0" encoding="utf-8"?>
<!-- Generator: Adobe Illustrator 21.1.0, SVG Export Plug-In . SVG Version: 6.00 Build 0)  -->
<svg version="1.1" id="Layer_1" xmlns="http://www.w3.org/2000/svg" xmlns:xlink="http://www.w3.org/1999/xlink" x="0px" y="0px"
	 viewBox="0 0 1920 1080" style="enable-background:new 0 0 1920 1080;" xml:space="preserve">
<style type="text/css">
	.st0{fill:#FFC90D;}
	.st1{opacity:5.000000e-02;}
	.st2{font-family:'GothamHTF-Book';}
	.st3{font-size:182.9503px;}
</style>
<path class="st0" d="M423.9,259.6l-43.2-74.8c-4.9-8.5-16.1-15-25.9-15h-86.2c-6.1,0-11,2.5-13.5,6.9c-2.5,4.4-2.2,9.9,0.8,15.1
	l12.3,21.3H236c-9.9,0-21,6.4-25.9,15l-13.5,23.3l-10.2-17.6c-8.7-15-8.7-15-12.8-15s-4.1,0-12.8,15l-43.1,74.8
	c-4.9,8.5-4.9,21.4,0,30l43.2,74.8c8.7,15,8.7,15,12.8,15c4.1,0,4.1,0,12.8-15l10.2-17.6l13.5,23.3c4.9,8.5,16.1,15,25.9,15h31.7
	l-12.1,20.9c-3,5.2-3.3,10.8-0.8,15.1c2.6,4.4,7.5,6.9,13.5,6.9h86.3c9.9,0,21-6.4,25.9-15l43.1-74.7c3-5.2,3.3-10.8,0.8-15.1
	c-2.5-4.4-7.4-6.9-13.5-6.9h-25l15.4-26.7c4.9-8.5,4.9-21.4,0-30L386,281.7h26.6c0,0,0.1,0,0.2,0c15.5,0,15.6,0,17.7-3.3l0.3-0.5
	C432.5,274.4,432.5,274.4,423.9,259.6z M174.3,406.3c-0.2,0.4-0.4,0.7-0.6,1.1c-0.2-0.3-0.4-0.7-0.6-1.1l-43.2-74.8
	c-2.4-4.2-2.4-11.8,0-15.9l43.2-74.8c0.2-0.4,0.4-0.7,0.6-1.1c0.2,0.4,0.4,0.7,0.6,1.1l14.2,24.6l-24.9,43.2c-4.9,8.5-4.9,21.4,0,30
	l24.9,43.2L174.3,406.3z M175.7,331.5c-2.4-4.2-2.4-11.8,0-15.9l20.9-36.2l20.9,36.2c2.4,4.2,2.4,11.8,0,15.9l-20.9,36.1
	L175.7,331.5z M222.3,412l-17.5-30.3l24.9-43.1c4.9-8.5,4.9-21.4,0-30l-25-43.3l17.5-30.3c0.2-0.3,0.5-0.7,0.7-1l51.6,89.6
	L222.9,413C222.7,412.7,222.4,412.3,222.3,412z M411,379.3c0.4,0,0.7,0,1,0.1c-0.1,0.3-0.2,0.6-0.4,0.9l-43.1,74.7
	c-2.4,4.2-9,8-13.8,8h-86.3c-0.4,0-0.7,0-1-0.1c0.1-0.3,0.2-0.6,0.4-0.9l16.1-27.9H329c9.9,0,21-6.4,25.9-15l23-39.8H411z
	 M292.1,420l19-32.8c2.4-4.2,9-8,13.8-8l36.9,0L342.9,412c-2.4,4.2-9,8-13.8,8H292.1z M389.3,331.5l-19.5,33.7l-45,0
	c-9.9,0-21,6.4-25.9,15l-23,39.9H236c-0.3,0-0.6,0-0.9-0.1l51.6-89.3l103,0.1C389.6,331,389.4,331.3,389.3,331.5z M389.3,315.6
	c0.2,0.3,0.3,0.7,0.5,1.1l-103.1-0.1l-51.6-89.4c0.3,0,0.6-0.1,0.9-0.1h40.2l22.8,39.6c4.9,8.5,16.1,15,25.9,15l44.8,0L389.3,315.6z
	 M292.4,227H329c4.8,0,11.4,3.8,13.8,8l18.8,32.6l-36.7,0c-4.8,0-11.4-3.8-13.8-8L292.4,227z M377.8,267.7L355,228
	c-4.9-8.5-16.1-15-25.9-15h-44.7L268,184.7c-0.2-0.3-0.3-0.6-0.4-0.9c0.3,0,0.6-0.1,1-0.1h86.2c4.8,0,11.4,3.8,13.8,8l43.2,74.8
	c0.2,0.4,0.4,0.8,0.6,1.1H377.8z"/>
<path class="st1" d="M1120.5,817.3L1011.1,628c-12.4-21.6-40.7-37.9-65.6-37.9h-218c-15.3,0-27.7,6.4-34.1,17.4
	c-6.4,11-5.6,25,1.9,38.2l31.1,54h-81.2c-24.9,0-53.1,16.3-65.6,37.9l-34.1,58.9l-25.7-44.6c-21.9-37.9-21.9-37.9-32.4-37.9
	s-10.5,0-32.4,37.9L346,941.2c-12.5,21.6-12.5,54.2,0,75.8l109.2,189.3c21.9,37.9,21.9,37.9,32.3,37.9s10.4,0,32.3-37.9l25.8-44.6
	l34.1,58.9c12.5,21.6,40.7,37.9,65.6,37.9h80.2l-30.5,52.9c-7.7,13.3-8.4,27.2-2.1,38.2c6.5,11,18.9,17.4,34.2,17.4h218.2
	c24.9,0,53.2-16.3,65.6-37.9l109-188.9c7.7-13.3,8.4-27.2,1.9-38.2c-6.4-11.1-18.8-17.4-34.1-17.4h-63.1l39.1-67.6
	c12.5-21.6,12.5-54.2,0-75.8l-39.2-68h67.2c0.1,0,0.3,0,0.4,0c39.3,0,39.4,0,44.7-8.4l0.6-1.2
	C1142.2,854.8,1142.2,854.8,1120.5,817.3z M489.1,1188.5c-0.5,1-1.1,1.8-1.6,2.7c-0.5-0.9-1.1-1.8-1.6-2.7L376.5,999.2
	c-6-10.6-6-29.8,0-40.3l109.3-189.3c0.5-1,1.1-1.8,1.6-2.8c0.5,1,1.1,1.8,1.6,2.8l35.9,62.3l-63,109.2c-12.5,21.6-12.5,54.2,0,75.8
	l63,109.2L489.1,1188.5z M492.8,999.3c-6-10.6-6-29.8,0-40.3l52.8-91.5l52.9,91.6c6,10.6,6,29.8,0,40.3l-52.8,91.3L492.8,999.3z
	 M610.4,1203l-44.2-76.6l63-109c12.5-21.6,12.5-54.2,0-75.8l-63.1-109.4l44.2-76.7c0.5-0.9,1.2-1.7,1.8-2.6l130.6,226.5l-130.6,226
	C611.5,1204.6,610.9,1203.7,610.4,1203z M1087.8,1120.1c1.1,0,1.8,0.1,2.5,0.2c-0.2,0.6-0.5,1.4-1.1,2.3l-109,188.9
	c-6.2,10.6-22.8,20.2-35,20.2H727c-1,0-1.8-0.1-2.5-0.2c0.2-0.6,0.5-1.4,1.1-2.3l40.8-70.6h114c24.9,0,53.2-16.3,65.6-37.9
	l58.1-100.6H1087.8z M787,1223l48-83c6-10.6,22.8-20.2,35-20.2l93.4,0.1l-47.9,82.9c-6.2,10.6-22.8,20.2-34.9,20.2H787z
	 M1032.9,999.3l-49.2,85.3l-113.9-0.1c-24.9,0-53.1,16.3-65.6,37.9L746,1223.1H645.3c-0.8,0-1.5-0.1-2.3-0.2l130.5-225.8l260.4,0.2
	C1033.6,997.9,1033.3,998.7,1032.9,999.3z M1032.9,958.9c0.5,0.9,0.9,1.8,1.3,2.8l-260.7-0.2L643,735.3c0.8-0.1,1.5-0.2,2.3-0.2
	h101.7l57.7,100.2c12.4,21.6,40.7,37.9,65.6,37.9l113.2,0.1L1032.9,958.9z M787.9,735.1h92.6c12.2,0,28.8,9.6,34.9,20.2l47.6,82.5
	l-92.7-0.1c-12.2,0-28.8-9.6-34.9-20.2L787.9,735.1z M1003.9,837.8l-57.8-100.3c-12.4-21.6-40.7-37.9-65.6-37.9h-113L726.1,628
	c-0.5-0.9-0.9-1.6-1.1-2.3c0.6-0.1,1.5-0.2,2.5-0.2h218.1c12.2,0,28.8,9.6,34.9,20.2L1089.8,835c0.5,1,1.1,1.9,1.6,2.8H1003.9z"/>
<path class="st1" d="M1741.2,690.2l-48.3-83.6c-5.5-9.5-18-16.7-29-16.7h-96.3c-6.8,0-12.3,2.8-15.1,7.7c-2.8,4.9-2.5,11.1,0.9,16.9
	l13.7,23.8h-35.8c-11,0-23.5,7.2-29,16.7l-15.1,26l-11.3-19.7c-9.7-16.7-9.7-16.7-14.3-16.7s-4.6,0-14.3,16.7l-48.2,83.6
	c-5.5,9.5-5.5,23.9,0,33.5l48.2,83.6c9.7,16.7,9.7,16.7,14.3,16.7s4.6,0,14.3-16.7l11.4-19.7l15.1,26c5.5,9.5,18,16.7,29,16.7h35.4
	l-13.5,23.4c-3.4,5.9-3.7,12-0.9,16.9c2.9,4.9,8.3,7.7,15.1,7.7h96.4c11,0,23.5-7.2,29-16.7l48.1-83.4c3.4-5.9,3.7-12,0.9-16.9
	c-2.8-4.9-8.3-7.7-15.1-7.7h-27.9l17.3-29.8c5.5-9.5,5.5-23.9,0-33.5l-17.3-30h29.7c0,0,0.1,0,0.2,0c17.4,0,17.4,0,19.7-3.7l0.3-0.5
	C1750.8,706.8,1750.8,706.8,1741.2,690.2z M1462.4,854.2c-0.2,0.4-0.5,0.8-0.7,1.2c-0.2-0.4-0.5-0.8-0.7-1.2l-48.3-83.6
	c-2.7-4.7-2.7-13.2,0-17.8l48.3-83.6c0.2-0.4,0.5-0.8,0.7-1.2c0.2,0.4,0.5,0.8,0.7,1.2l15.9,27.5l-27.8,48.2
	c-5.5,9.5-5.5,23.9,0,33.5l27.8,48.2L1462.4,854.2z M1464,770.6c-2.7-4.7-2.7-13.2,0-17.8l23.3-40.4l23.4,40.5
	c2.7,4.7,2.7,13.2,0,17.8l-23.3,40.3L1464,770.6z M1515.9,860.5l-19.5-33.8l27.8-48.1c5.5-9.5,5.5-23.9,0-33.5l-27.9-48.3l19.5-33.9
	c0.2-0.4,0.5-0.8,0.8-1.1l57.7,100.1l-57.7,99.8C1516.4,861.3,1516.1,860.9,1515.9,860.5z M1726.8,823.9c0.5,0,0.8,0,1.1,0.1
	c-0.1,0.3-0.2,0.6-0.5,1l-48.1,83.4c-2.7,4.7-10.1,8.9-15.4,8.9h-96.4c-0.4,0-0.8,0-1.1-0.1c0.1-0.3,0.2-0.6,0.5-1l18-31.2h50.3
	c11,0,23.5-7.2,29-16.7l25.6-44.4H1726.8z M1593.9,869.4l21.2-36.7c2.7-4.7,10.1-8.9,15.4-8.9l41.2,0l-21.2,36.6
	c-2.7,4.7-10.1,8.9-15.4,8.9H1593.9z M1702.6,770.6l-21.7,37.7l-50.3,0c-11,0-23.5,7.2-29,16.7l-25.7,44.5h-44.5c-0.3,0-0.7,0-1-0.1
	l57.6-99.7l115,0.1C1702.8,770,1702.7,770.3,1702.6,770.6z M1702.6,752.8c0.2,0.4,0.4,0.8,0.6,1.2l-115.2-0.1l-57.6-99.9
	c0.3,0,0.7-0.1,1-0.1h44.9l25.5,44.2c5.5,9.5,18,16.7,29,16.7l50,0L1702.6,752.8z M1594.3,653.9h40.9c5.4,0,12.7,4.2,15.4,8.9
	l21,36.4l-40.9,0c-5.4,0-12.7-4.2-15.4-8.9L1594.3,653.9z M1689.7,699.3l-25.6-44.3c-5.5-9.5-18-16.7-29-16.7h-49.9l-18.3-31.7
	c-0.2-0.4-0.4-0.7-0.5-1c0.3,0,0.7-0.1,1.1-0.1h96.3c5.4,0,12.7,4.2,15.4,8.9l48.3,83.6c0.2,0.4,0.5,0.9,0.7,1.2H1689.7z"/>
<text transform="matrix(1 0 0 1 586.9961 386.4512)" class="st2 st3">CryptoPrices</text>
</svg>
